<svg xmlns="http://www.w3.org/2000/svg" xmlns:xlink="http://www.w3.org/1999/xlink" width="2000" zoomAndPan="magnify" viewBox="0 0 1500 1499.999933" height="2000" preserveAspectRatio="xMidYMid meet" version="1.0"><defs><g/><clipPath id="07332a2228"><rect x="0" width="712" y="0" height="455"/></clipPath></defs><path fill="#ff2c19" d="M 584.636719 471.070312 L 401.054688 488.578125 C 375.40625 491.023438 358.925781 519.121094 365.652344 548.941406 L 400.832031 704.886719 C 407.449219 734.222656 433.71875 752.617188 457.785156 744.773438 L 533.925781 719.949219 C 541.988281 717.320312 550.929688 719.335938 558.113281 725.402344 L 624.191406 773.660156 C 626.253906 775.167969 628.667969 773.164062 628.042969 770.464844 L 613.027344 705.402344 C 611.667969 699.503906 614.359375 693.722656 619.203125 692.144531 L 633.222656 687.574219 C 651.9375 681.472656 662.34375 659.132812 657.085938 636.339844 L 627.199219 506.851562 C 622.078125 484.660156 603.746094 469.25 584.636719 471.070312 " fill-opacity="1" fill-rule="nonzero"/><path fill="#e62816" d="M 628.042969 770.464844 L 623.515625 750.839844 L 554.535156 702.832031 C 548.707031 698.773438 541.3125 697.683594 534.558594 699.886719 L 469.140625 721.214844 C 431.070312 733.863281 422.722656 719.632812 412.1875 681.332031 L 377.007812 525.382812 C 375.121094 517.015625 375.058594 508.78125 376.519531 501.214844 C 366.222656 512.675781 361.488281 530.480469 365.652344 548.941406 L 400.832031 704.886719 C 407.449219 734.222656 433.71875 752.617188 457.78125 744.773438 L 533.925781 719.949219 C 541.988281 717.320312 550.929688 719.335938 558.113281 725.402344 L 624.191406 773.660156 C 626.253906 775.167969 628.664062 773.164062 628.042969 770.464844 " fill-opacity="1" fill-rule="nonzero"/><path fill="#25bf6a" d="M 1098.21875 482.847656 L 899.925781 476.722656 C 879.71875 476.097656 861.753906 492.648438 858.21875 515.144531 L 837.59375 646.425781 C 833.964844 669.53125 846.738281 691.203125 866.886719 696.132812 L 881.976562 699.820312 C 887.191406 701.097656 890.496094 706.703125 889.558594 712.683594 L 882.34375 758.589844 C 881.6875 762.765625 885.496094 765.851562 888.886719 763.890625 L 952.8125 726.125 C 959.160156 721.949219 966.652344 720.523438 973.78125 722.265625 L 1059.707031 743.273438 C 1083.480469 749.085938 1107.378906 730.707031 1111.519531 703.421875 L 1136.90625 536.171875 C 1141.117188 508.4375 1123.109375 483.617188 1098.21875 482.847656 " fill-opacity="1" fill-rule="nonzero"/><path fill="#20a65c" d="M 1123.371094 493.546875 C 1125.652344 500.730469 1126.367188 508.726562 1125.117188 516.984375 L 1099.730469 684.238281 C 1095 718.648438 1080.015625 732.636719 1047.917969 724.089844 L 972.652344 705.6875 C 965.816406 704.015625 958.59375 705.074219 952.527344 708.636719 L 883.855469 748.976562 L 882.34375 758.589844 C 881.6875 762.765625 885.496094 765.851562 888.886719 763.890625 L 952.808594 726.125 C 959.160156 721.949219 966.652344 720.523438 973.78125 722.265625 L 1059.707031 743.273438 C 1083.480469 749.085938 1107.378906 730.707031 1111.519531 703.421875 L 1136.90625 536.171875 C 1139.46875 519.296875 1133.804688 503.503906 1123.371094 493.546875 " fill-opacity="1" fill-rule="nonzero"/><path fill="#e3e3e3" d="M 614.039062 696.65625 C 614.035156 696.652344 614.039062 696.65625 614.039062 696.65625 C 615.167969 694.519531 616.953125 692.878906 619.203125 692.144531 L 619.296875 692.113281 C 616.460938 693.183594 615.492188 694.394531 614.039062 696.65625 M 621.230469 691.484375 L 621.261719 691.472656 L 621.230469 691.484375 M 625.71875 690.019531 L 633.222656 687.574219 C 651.9375 681.472656 662.34375 659.132812 657.085938 636.339844 L 627.199219 506.851562 C 623.3125 490.007812 611.8125 477.070312 598.140625 472.609375 L 895.40625 476.867188 C 877.09375 478.621094 861.488281 494.339844 858.21875 515.144531 L 837.59375 646.425781 C 835.621094 659.003906 838.503906 671.15625 844.792969 680.414062 L 625.71875 690.019531 M 852.160156 688.613281 C 849.507812 686.40625 847.167969 683.847656 845.199219 681.003906 C 847.207031 683.851562 849.539062 686.414062 852.160156 688.613281 M 924.4375 477.476562 L 912.648438 477.113281 L 924.4375 477.476562 M 560.628906 473.359375 L 572.375 472.238281 L 560.628906 473.359375 " fill-opacity="1" fill-rule="nonzero"/><path fill="#e32716" d="M 614.039062 696.65625 C 598.6875 685.777344 587.878906 667.78125 585.660156 646.621094 L 560.628906 473.359375 L 572.375 472.238281 L 598.140625 472.609375 C 611.8125 477.070312 623.3125 490.007812 627.199219 506.851562 L 657.085938 636.339844 C 662.34375 659.132812 651.9375 681.472656 633.222656 687.574219 L 625.71875 690.019531 L 625.664062 690.023438 L 621.261719 691.472656 L 621.230469 691.484375 C 620.5 691.691406 619.859375 691.902344 619.296875 692.113281 L 619.203125 692.144531 C 616.953125 692.878906 615.167969 694.519531 614.039062 696.65625 " fill-opacity="1" fill-rule="nonzero"/><path fill="#21aa5e" d="M 855.503906 691.121094 L 854.667969 690.53125 C 853.804688 689.925781 852.964844 689.285156 852.160156 688.613281 C 849.539062 686.414062 847.207031 683.851562 845.199219 681.003906 C 845.066406 680.808594 844.933594 680.613281 844.800781 680.414062 L 844.792969 680.414062 C 838.503906 671.15625 835.621094 659.003906 837.59375 646.425781 L 858.21875 515.144531 C 861.488281 494.339844 877.09375 478.621094 895.40625 476.867188 L 912.648438 477.113281 L 924.4375 477.476562 C 924.425781 478.359375 924.417969 479.195312 924.417969 479.984375 L 924.417969 627.972656 C 924.417969 643.316406 919.207031 658.019531 909.742188 669.367188 C 900.035156 681.003906 886.761719 688.089844 872.355469 689.328125 L 855.503906 691.121094 " fill-opacity="1" fill-rule="nonzero"/><path fill="#ffbb02" d="M 913.285156 425.769531 C 912.207031 402.300781 891.726562 384.472656 868.289062 386.371094 L 656.136719 390.488281 C 648.804688 390.628906 614.089844 391.433594 607.238281 394.046875 C 586.453125 401.980469 576.546875 418.339844 572.648438 437.523438 C 570.523438 447.980469 570.382812 458.742188 571.949219 469.296875 L 597.359375 645.171875 C 600.421875 675.335938 624.484375 698.148438 652.414062 695.820312 L 732.550781 688.25 C 735.300781 688.019531 737.824219 689.949219 738.617188 692.882812 L 761.914062 742.804688 C 762.347656 743.738281 762.710938 744.699219 763.09375 745.652344 C 765.734375 752.292969 774.410156 752.75 777.449219 745.929688 L 803.300781 687.933594 C 804.203125 685.90625 805.984375 684.542969 808.007812 684.328125 L 871.230469 677.601562 C 894.574219 675.660156 912.625 654.015625 912.625 627.972656 L 912.625 479.984375 C 912.625 467.757812 914.195312 445.675781 913.285156 425.769531 " fill-opacity="1" fill-rule="nonzero"/><path fill="#e8aa02" d="M 728.390625 680.125 C 727.597656 677.1875 725.074219 675.261719 722.328125 675.488281 L 642.1875 683.0625 C 628.253906 684.222656 615.28125 679.125 605.398438 669.976562 C 615.296875 686.808594 632.910156 697.445312 652.414062 695.820312 L 732.199219 688.28125 L 728.390625 680.125 " fill-opacity="1" fill-rule="nonzero"/><path fill="#e8aa02" d="M 913.285156 425.769531 C 912.730469 413.730469 907.070312 403.175781 898.523438 396.007812 C 901.167969 401.121094 902.777344 406.871094 903.058594 413.007812 C 903.972656 432.914062 902.402344 454.996094 902.402344 467.222656 L 902.402344 615.210938 C 903.492188 647.566406 889.410156 663.597656 861.003906 664.84375 L 797.78125 671.566406 C 795.757812 671.78125 793.976562 673.144531 793.074219 675.171875 L 767.222656 733.167969 C 765.667969 736.65625 762.640625 738.238281 759.699219 738.0625 L 761.914062 742.804688 C 762.347656 743.738281 762.710938 744.699219 763.09375 745.652344 C 765.734375 752.292969 774.410156 752.75 777.449219 745.929688 L 803.300781 687.933594 C 804.203125 685.90625 805.984375 684.542969 808.007812 684.328125 L 871.230469 677.601562 C 894.574219 675.660156 912.625 654.015625 912.625 627.972656 L 912.625 479.984375 C 912.625 467.757812 914.195312 445.675781 913.285156 425.769531 " fill-opacity="1" fill-rule="nonzero"/><path fill="#ffffff" d="M 797.339844 464.863281 C 786.492188 455.277344 771.835938 448.660156 753.476562 448.660156 C 736.03125 448.660156 722 455.21875 711.265625 464.691406 C 705.523438 469.757812 701.203125 475.40625 698.292969 481.644531 C 694.003906 490.835938 700.804688 501.359375 710.957031 501.359375 C 717.800781 501.359375 724.105469 497.535156 727.152344 491.410156 C 729.109375 487.472656 731.570312 484.25 734.53125 481.742188 C 739.996094 477.121094 746.785156 474.808594 754.902344 474.808594 C 763.320312 474.808594 770.015625 477.027344 774.980469 481.460938 C 779.949219 485.890625 782.4375 491.21875 782.4375 497.429688 C 782.4375 501.902344 781.03125 505.996094 778.226562 509.707031 C 776.40625 512.058594 770.828125 517.019531 761.5 524.597656 C 753.230469 531.316406 747.402344 537.4375 744.019531 542.960938 C 743.355469 544.050781 742.785156 545.191406 742.285156 546.367188 C 739.792969 552.265625 740.066406 568.582031 739.425781 581.601562 C 739.015625 589.945312 743.535156 596.957031 751.894531 597.074219 L 754 597.074219 C 761.964844 597.183594 768.574219 590.972656 768.980469 583.023438 C 769.53125 572.199219 768.460938 559.78125 769.523438 557.5625 C 771.152344 554.152344 775.34375 549.644531 782.09375 544.039062 C 795.140625 533.199219 803.65625 524.636719 807.636719 518.347656 C 811.621094 512.058594 813.609375 505.386719 813.609375 498.339844 C 813.609375 485.609375 808.1875 474.453125 797.339844 464.863281 " fill-opacity="1" fill-rule="nonzero"/><path fill="#ffffff" d="M 737.976562 629.351562 C 737.976562 619.792969 745.730469 612.042969 755.296875 612.042969 L 755.300781 612.042969 C 764.867188 612.042969 772.621094 619.792969 772.621094 629.351562 C 772.621094 638.910156 764.867188 646.65625 755.300781 646.65625 L 755.296875 646.65625 C 745.730469 646.65625 737.976562 638.910156 737.976562 629.351562 " fill-opacity="1" fill-rule="nonzero"/><path fill="#ffffff" d="M 1051.40625 548.390625 C 1045.628906 537.582031 1035.953125 528.007812 1021.382812 522.589844 C 1007.535156 517.441406 994.457031 518.507812 983.140625 522.859375 C 977.085938 525.183594 971.984375 528.394531 967.832031 532.484375 C 961.710938 538.511719 964 548.875 972.054688 551.871094 C 977.484375 553.890625 983.621094 552.710938 987.847656 548.75 C 990.566406 546.207031 993.472656 544.375 996.566406 543.257812 C 1002.265625 541.199219 1008.335938 541.367188 1014.78125 543.765625 C 1021.464844 546.25 1026.121094 549.980469 1028.753906 554.96875 C 1031.386719 559.953125 1031.785156 564.910156 1029.945312 569.84375 C 1028.625 573.390625 1026.300781 576.226562 1022.976562 578.34375 C 1020.835938 579.671875 1014.945312 581.964844 1005.296875 585.226562 C 996.75 588.117188 990.316406 591.257812 985.996094 594.644531 C 985.148438 595.3125 984.355469 596.046875 983.613281 596.835938 C 979.890625 600.78125 975.285156 613.8125 970.925781 623.957031 C 968.136719 630.460938 969.648438 637.355469 976.25 639.914062 L 977.917969 640.535156 C 984.207031 642.972656 991.289062 639.996094 993.960938 633.808594 C 997.601562 625.375 1000.421875 615.207031 1001.921875 613.757812 C 1004.222656 611.53125 1008.878906 609.191406 1015.898438 606.734375 C 1029.457031 601.980469 1038.746094 597.699219 1043.765625 593.878906 C 1048.785156 590.0625 1052.335938 585.359375 1054.421875 579.765625 C 1058.1875 569.660156 1057.179688 559.203125 1051.40625 548.390625 " fill-opacity="1" fill-rule="nonzero"/><path fill="#ffffff" d="M 955.660156 661.425781 C 958.484375 653.839844 966.929688 649.980469 974.523438 652.800781 C 982.117188 655.625 985.980469 664.0625 983.15625 671.652344 C 980.332031 679.234375 971.886719 683.097656 964.292969 680.273438 C 956.699219 677.453125 952.832031 669.011719 955.660156 661.425781 " fill-opacity="1" fill-rule="nonzero"/><path fill="#ffffff" d="M 516.585938 526.410156 C 506.664062 522.507812 494.859375 521.617188 482.160156 526.230469 C 470.089844 530.617188 462.03125 538.679688 456.992188 547.929688 C 454.296875 552.878906 452.730469 557.875 452.285156 562.921875 C 451.636719 570.355469 458.992188 575.929688 466.015625 573.378906 C 470.75 571.65625 474.148438 567.425781 474.710938 562.421875 C 475.074219 559.207031 475.964844 556.359375 477.382812 553.878906 C 480 549.308594 484.113281 546.003906 489.730469 543.964844 C 495.554688 541.847656 500.742188 541.699219 505.296875 543.515625 C 509.851562 545.332031 512.910156 548.390625 514.476562 552.691406 C 515.601562 555.785156 515.660156 558.96875 514.65625 562.242188 C 513.988281 564.324219 511.378906 569.160156 506.832031 576.75 C 502.804688 583.472656 500.316406 589.175781 499.367188 593.847656 C 499.179688 594.765625 499.070312 595.699219 499.023438 596.640625 C 498.785156 601.347656 503.082031 612.566406 505.917969 621.734375 C 507.738281 627.609375 512.628906 631.324219 518.441406 629.304688 L 519.898438 628.773438 C 525.4375 626.851562 528.445312 620.890625 526.722656 615.289062 C 524.378906 607.660156 520.511719 599.339844 520.6875 597.539062 C 520.953125 594.769531 522.71875 590.597656 525.976562 585.019531 C 532.273438 574.246094 536.007812 566.179688 537.179688 560.824219 C 538.347656 555.472656 538.046875 550.359375 536.273438 545.484375 C 533.066406 536.675781 526.503906 530.320312 516.585938 526.410156 " fill-opacity="1" fill-rule="nonzero"/><path fill="#ffffff" d="M 516.941406 655.132812 C 514.535156 648.519531 517.949219 641.210938 524.566406 638.808594 L 524.566406 638.804688 C 531.1875 636.402344 538.503906 639.8125 540.910156 646.425781 C 543.316406 653.039062 539.902344 660.347656 533.285156 662.753906 C 526.664062 665.15625 519.347656 661.746094 516.941406 655.132812 " fill-opacity="1" fill-rule="nonzero"/><g transform="matrix(1, 0, 0, 1, 393, 662)"><g clip-path="url(#07332a2228)"><g fill="#3b3a35" fill-opacity="1"><g transform="translate(2.910312, 353.54929)"><g><path d="M 229.078125 -8.640625 L 216.6875 -19.15625 C 204.164062 -11.144531 191.894531 -5.320312 179.875 -1.6875 C 167.863281 1.9375 155.222656 3.75 141.953125 3.75 C 123.929688 3.75 106.96875 0.367188 91.0625 -6.390625 C 75.164062 -13.148438 61.332031 -22.347656 49.5625 -33.984375 C 37.800781 -45.628906 28.476562 -59.335938 21.59375 -75.109375 C 14.707031 -90.878906 11.265625 -107.65625 11.265625 -125.4375 C 11.265625 -143.207031 14.644531 -159.914062 21.40625 -175.5625 C 28.164062 -191.21875 37.425781 -204.863281 49.1875 -216.5 C 60.957031 -228.144531 74.726562 -237.347656 90.5 -244.109375 C 106.28125 -250.867188 123.054688 -254.25 140.828125 -254.25 C 158.859375 -254.25 175.757812 -250.804688 191.53125 -243.921875 C 207.300781 -237.035156 221.066406 -227.707031 232.828125 -215.9375 C 244.597656 -204.164062 253.925781 -190.394531 260.8125 -174.625 C 267.695312 -158.851562 271.140625 -141.957031 271.140625 -123.9375 C 271.140625 -112.914062 269.890625 -102.582031 267.390625 -92.9375 C 264.890625 -83.300781 260.757812 -72.976562 255 -61.96875 L 266.265625 -51.828125 L 271.140625 -47.6875 C 279.148438 -40.425781 283.15625 -32.664062 283.15625 -24.40625 C 283.15625 -16.394531 280.398438 -9.570312 274.890625 -3.9375 C 269.390625 1.6875 262.632812 4.5 254.625 4.5 C 247.613281 4.5 240.726562 1.5 233.96875 -4.5 Z M 141.578125 -197.15625 C 131.566406 -197.15625 122.175781 -195.273438 113.40625 -191.515625 C 104.644531 -187.765625 96.945312 -182.632812 90.3125 -176.125 C 83.675781 -169.625 78.476562 -161.988281 74.71875 -153.21875 C 70.96875 -144.457031 69.09375 -135.195312 69.09375 -125.4375 C 69.09375 -115.414062 71.035156 -106.023438 74.921875 -97.265625 C 78.804688 -88.503906 84 -80.804688 90.5 -74.171875 C 97.007812 -67.535156 104.707031 -62.335938 113.59375 -58.578125 C 122.488281 -54.828125 131.941406 -52.953125 141.953125 -52.953125 C 151.722656 -52.953125 160.988281 -54.828125 169.75 -58.578125 C 178.507812 -62.335938 186.082031 -67.472656 192.46875 -73.984375 C 198.851562 -80.492188 203.921875 -88.066406 207.671875 -96.703125 C 211.429688 -105.335938 213.3125 -114.664062 213.3125 -124.6875 C 213.3125 -134.445312 211.429688 -143.769531 207.671875 -152.65625 C 203.921875 -161.539062 198.726562 -169.238281 192.09375 -175.75 C 185.457031 -182.257812 177.820312 -187.453125 169.1875 -191.328125 C 160.550781 -195.210938 151.347656 -197.15625 141.578125 -197.15625 Z M 141.578125 -197.15625 "/></g></g></g><g fill="#3b3a35" fill-opacity="1"><g transform="translate(275.505528, 353.54929)"><g><path d="M 132.5625 -87.875 L 132.5625 -152.46875 C 132.8125 -160.976562 135.191406 -167.738281 139.703125 -172.75 C 144.210938 -177.757812 150.222656 -180.265625 157.734375 -180.265625 C 164.992188 -180.265625 170.9375 -177.695312 175.5625 -172.5625 C 180.195312 -167.425781 182.515625 -160.726562 182.515625 -152.46875 L 182.515625 -83.75 C 182.515625 -71.476562 181.132812 -60.835938 178.375 -51.828125 C 175.625 -42.816406 171.117188 -34.425781 164.859375 -26.65625 C 157.347656 -17.144531 148.082031 -9.695312 137.0625 -4.3125 C 126.050781 1.0625 114.539062 3.75 102.53125 3.75 C 88.507812 3.75 75.175781 0.179688 62.53125 -6.953125 C 49.882812 -14.085938 39.804688 -23.785156 32.296875 -36.046875 C 28.796875 -41.804688 26.101562 -48.941406 24.21875 -57.453125 C 22.34375 -65.972656 21.40625 -75.113281 21.40625 -84.875 L 21.40625 -152.46875 C 21.65625 -160.976562 23.96875 -167.738281 28.34375 -172.75 C 32.726562 -177.757812 38.675781 -180.265625 46.1875 -180.265625 C 53.695312 -180.265625 59.769531 -177.695312 64.40625 -172.5625 C 69.039062 -167.425781 71.359375 -160.726562 71.359375 -152.46875 L 71.359375 -89.375 C 71.359375 -81.863281 71.609375 -76.476562 72.109375 -73.21875 C 72.609375 -69.96875 73.484375 -66.84375 74.734375 -63.84375 C 76.984375 -58.832031 80.675781 -54.632812 85.8125 -51.25 C 90.945312 -47.875 96.394531 -46.1875 102.15625 -46.1875 C 110.914062 -46.1875 118.171875 -49.316406 123.921875 -55.578125 C 129.679688 -61.835938 132.5625 -69.472656 132.5625 -78.484375 Z M 132.5625 -87.875 "/></g></g></g><g fill="#3b3a35" fill-opacity="1"><g transform="translate(465.495278, 353.54929)"><g><path d="M 23.28125 -30.796875 L 23.28125 -152.46875 C 23.53125 -160.976562 25.90625 -167.738281 30.40625 -172.75 C 34.914062 -177.757812 40.800781 -180.265625 48.0625 -180.265625 C 55.582031 -180.265625 61.65625 -177.695312 66.28125 -172.5625 C 70.914062 -167.425781 73.234375 -160.726562 73.234375 -152.46875 L 73.234375 -25.15625 C 72.984375 -16.644531 70.601562 -9.882812 66.09375 -4.875 C 61.59375 0.125 55.710938 2.625 48.453125 2.625 C 40.929688 2.625 34.851562 0.0625 30.21875 -5.0625 C 25.59375 -10.195312 23.28125 -16.894531 23.28125 -25.15625 Z M 48.0625 -250.859375 C 56.332031 -250.859375 63.34375 -247.976562 69.09375 -242.21875 C 74.851562 -236.46875 77.734375 -229.460938 77.734375 -221.203125 C 77.734375 -212.929688 74.789062 -205.851562 68.90625 -199.96875 C 63.03125 -194.09375 55.832031 -191.15625 47.3125 -191.15625 C 43.3125 -191.15625 39.492188 -191.96875 35.859375 -193.59375 C 32.234375 -195.21875 29.039062 -197.34375 26.28125 -199.96875 C 23.53125 -202.601562 21.34375 -205.671875 19.71875 -209.171875 C 18.09375 -212.679688 17.28125 -216.441406 17.28125 -220.453125 C 17.28125 -229.210938 20.21875 -236.46875 26.09375 -242.21875 C 31.976562 -247.976562 39.300781 -250.859375 48.0625 -250.859375 Z M 48.0625 -250.859375 "/></g></g></g><g fill="#3b3a35" fill-opacity="1"><g transform="translate(546.595962, 353.54929)"><g><path d="M 37.171875 0 C 33.671875 0 30.789062 -0.1875 28.53125 -0.5625 C 26.28125 -0.9375 23.90625 -1.75 21.40625 -3 C 17.394531 -5.007812 14.078125 -8.203125 11.453125 -12.578125 C 8.828125 -16.960938 7.515625 -21.28125 7.515625 -25.53125 C 7.515625 -27.289062 7.640625 -28.859375 7.890625 -30.234375 C 8.140625 -31.609375 8.640625 -33.046875 9.390625 -34.546875 C 10.140625 -36.046875 11.265625 -37.859375 12.765625 -39.984375 C 14.265625 -42.117188 16.144531 -44.6875 18.40625 -47.6875 L 83 -131.8125 L 37.5625 -131.8125 C 29.789062 -132.0625 23.585938 -134.25 18.953125 -138.375 C 14.328125 -142.507812 12.015625 -147.957031 12.015625 -154.71875 C 12.015625 -161.726562 14.390625 -167.300781 19.140625 -171.4375 C 23.898438 -175.570312 30.039062 -177.640625 37.5625 -177.640625 L 124.6875 -177.640625 C 133.945312 -177.640625 141.390625 -175.257812 147.015625 -170.5 C 152.648438 -165.738281 155.46875 -159.351562 155.46875 -151.34375 C 155.46875 -146.582031 153.34375 -141.328125 149.09375 -135.578125 L 80.359375 -45.8125 L 131.8125 -45.8125 C 139.570312 -45.5625 145.707031 -43.367188 150.21875 -39.234375 C 154.726562 -35.109375 156.984375 -29.664062 156.984375 -22.90625 C 156.984375 -16.144531 154.664062 -10.632812 150.03125 -6.375 C 145.394531 -2.125 139.320312 0 131.8125 0 Z M 37.171875 0 "/></g></g></g></g></g></svg>